<svg xmlns="http://www.w3.org/2000/svg" width="63.698" height="85.811" viewBox="0 0 63.698 85.811">
  <g id="tamaños-01" transform="translate(-0.697 -0.123)">
    <path id="Shape" d="M3.121,6.242A3.121,3.121,0,1,1,5.36.931a3.037,3.037,0,0,1,.882,2.191A3.124,3.124,0,0,1,3.121,6.242Zm0-4.448a1.352,1.352,0,1,0,0,2.7,1.377,1.377,0,0,0,.986-.416,1.276,1.276,0,0,0,.365-.936A1.353,1.353,0,0,0,3.121,1.794Z" transform="translate(34.765 43.175)" fill="#1a1a1a"/>
    <path id="Shape-2" data-name="Shape" d="M15.469,85.811a5.391,5.391,0,0,1-3.834-1.6L1.585,74.187a5.467,5.467,0,0,1,0-7.691l9.9-9.9L11.365,35.41l2.777-2.286L20.7,27.694l1.549-1.277V4.48A4.257,4.257,0,0,1,23.333,1.3,5.368,5.368,0,0,1,27.265,0H47a5.368,5.368,0,0,1,3.932,1.3A4.257,4.257,0,0,1,52.009,4.48V17.472l.59-.565A4.6,4.6,0,0,1,55.825,15.6a4.545,4.545,0,0,1,3.286,1.383l.221.221a4.628,4.628,0,0,1-.074,6.512l-.934.909a4.429,4.429,0,0,1,2.532,1.3l.22.221A4.627,4.627,0,0,1,61,32.658l-1.278,1.253a4.576,4.576,0,0,1,2.531,1.3l.148.2a4.61,4.61,0,0,1-.1,6.512L34.563,68.978,19.327,84.213A5.416,5.416,0,0,1,15.469,85.811Zm8.625-58.387L15.789,34.28,13.38,36.27,13.5,56.961a.989.989,0,0,1-.294.689l-10.2,10.2a3.549,3.549,0,0,0,0,5.013l10,10.05a3.522,3.522,0,0,0,2.507,1.032,3.566,3.566,0,0,0,2.506-1.032L32.818,68.117v-.024a.347.347,0,0,0,.1-.074l.074-.074L44.465,56.765,49.454,51.9a9.758,9.758,0,0,1-3.269.418H28.837a15.015,15.015,0,0,1,.148,2.162l-.2,2.286a20.439,20.439,0,0,1-2.481,6.929,24.029,24.029,0,0,1-3,4.154.976.976,0,0,1-.689.294.955.955,0,0,1-.663-.27.982.982,0,0,1-.287-.681.914.914,0,0,1,.263-.671l.024-.024A21.209,21.209,0,0,0,26.8,57.158a13.354,13.354,0,0,0,.246-4.35c-.518-4.686-3.511-8.911-8.9-12.557l-1.18-.811,1.2-.787c3.178-2.054,5.352-4.145,6.463-6.217a4.443,4.443,0,0,0,.486-2.59,4.606,4.606,0,0,0-1.026-2.423Zm0,14.326v1.057c.384.408.746.818,1.075,1.217.048.064.241.318.891,1.168a12.121,12.121,0,0,1,2.457,5.381H46.161c3.974,0,4.128-.278,4.128-7.446V41.75ZM59,35.723a2.747,2.747,0,0,0-1.9.768l-5.013,4.891V43.1c0,3.11,0,5.357-.565,6.807L61.077,40.6a2.76,2.76,0,0,0,.074-3.834l-.22-.221A2.682,2.682,0,0,0,59,35.723ZM22.325,37.966l-.145.116c-.45.361-.915.734-1.4,1.088-.072.048-.146.1-.218.157s-.149.112-.224.162a.618.618,0,0,0,.074.062.647.647,0,0,1,.073.061.659.659,0,0,0,.075.062.688.688,0,0,1,.073.06.619.619,0,0,0,.073.062.621.621,0,0,1,.073.062c.514.374,1,.789,1.474,1.19l.074.063Zm1.795-13.024h0l.613.516a6.435,6.435,0,0,1,1.548,7.912,13.855,13.855,0,0,1-2.187,2.949v3.661h26.2V8.478c0-.442,0-.86-.024-1.228H24.119c-.025.368-.025.786-.025,1.228V24.967l.025-.025Zm33.518,1.5a2.731,2.731,0,0,0-1.917.761l-3.637,3.539v7.987L59.7,31.282a2.623,2.623,0,0,0,.811-1.893,2.763,2.763,0,0,0-.761-1.916l-.221-.221A2.622,2.622,0,0,0,57.637,26.441ZM55.868,17.5a2.646,2.646,0,0,0-1.892.762L52.083,20.1v7.987l5.9-5.75a2.622,2.622,0,0,0,.811-1.892,2.764,2.764,0,0,0-.761-1.917l-.221-.221A2.734,2.734,0,0,0,55.868,17.5ZM27.313,1.769a3.687,3.687,0,0,0-2.654.787A2.7,2.7,0,0,0,24.094,4.5v.958H50.265V4.441A2.548,2.548,0,0,0,49.7,2.556a3.655,3.655,0,0,0-2.654-.787Z" transform="translate(0.694 0.123)" fill="#1a1a1a"/>
  </g>
</svg>
