<svg xmlns="http://www.w3.org/2000/svg" width="63.723" height="93.993" viewBox="0 0 63.723 93.993">
  <g id="tamaños-02" transform="translate(-0.808 -0.049)">
    <path id="Shape" d="M15.469,93.993a5.391,5.391,0,0,1-3.834-1.6L1.585,82.37a5.467,5.467,0,0,1,0-7.691l9.9-9.9-.123-21.182,2.777-2.285L20.7,35.877,22.252,34.6V5.209A4.886,4.886,0,0,1,23.48,1.5,6.289,6.289,0,0,1,28.026,0H50.855A6.13,6.13,0,0,1,55.4,1.5,4.973,4.973,0,0,1,56.63,5.168V23.861a4.669,4.669,0,0,1,2.433,1.3l.22.221a4.652,4.652,0,0,1,1.3,3.268A4.489,4.489,0,0,1,59.209,31.9l-.933.91a4.412,4.412,0,0,1,2.531,1.3l.221.22a4.629,4.629,0,0,1-.074,6.512l-1.278,1.253a4.576,4.576,0,0,1,2.531,1.3l.221.2a4.61,4.61,0,0,1-.1,6.512l-5.873,5.726a5.431,5.431,0,0,1-1.3,3.235,5.332,5.332,0,0,1-3.4,1.337l-17.2,16.759L19.327,92.4A5.416,5.416,0,0,1,15.469,93.993Zm8.576-58.387h0l-8.306,6.856-2.408,1.99.123,20.691a.986.986,0,0,1-.3.688l-10.2,10.2a3.549,3.549,0,0,0,0,5.013l10,10.05a3.519,3.519,0,0,0,2.506,1.032,3.57,3.57,0,0,0,2.507-1.032L32.769,76.3v-.024a.339.339,0,0,0,.093-.069l.005,0,.024-.024.05-.05L44.417,64.948,48.963,60.5H28.787a15,15,0,0,1,.148,2.163l-.2,2.285a20.441,20.441,0,0,1-2.482,6.929,23.693,23.693,0,0,1-3,4.154.972.972,0,0,1-.689.294.955.955,0,0,1-.663-.27,1,1,0,0,1-.289-.676.913.913,0,0,1,.264-.676l.024-.024A19.58,19.58,0,0,0,24,71.908a20.163,20.163,0,0,0,2.752-6.567,13.327,13.327,0,0,0,.246-4.35c-.517-4.685-3.51-8.91-8.9-12.557l-1.179-.811,1.2-.787c3.18-2.055,5.354-4.147,6.462-6.217a4.444,4.444,0,0,0,.486-2.59,4.607,4.607,0,0,0-1.026-2.423Zm.294,12.656v3.022l.786.929c.056.074.255.336.885,1.16a12.063,12.063,0,0,1,2.433,5.087H49.872c4.589,0,4.767-.322,4.767-8.626V48.262H24.34Zm34.61-4.331a2.745,2.745,0,0,0-1.9.768l-.345.344v4.816c0,1.138,0,2.212-.024,3.17l4.35-4.251a2.721,2.721,0,0,0,.074-3.809l-.221-.221A2.682,2.682,0,0,0,58.949,43.931ZM22.3,46.148l-.145.116c-.45.36-.915.733-1.4,1.088-.073.049-.148.1-.22.159s-.148.111-.222.161a.617.617,0,0,0,.073.062.62.62,0,0,1,.073.062.687.687,0,0,0,.073.06.659.659,0,0,1,.075.062.66.66,0,0,0,.074.062.66.66,0,0,1,.074.062c.514.374,1,.789,1.475,1.191l.073.062V46.148ZM24.34,8.355c-.024.443-.024.92-.024,1.426V33.322l.369.319a6.439,6.439,0,0,1,1.548,7.913,12.341,12.341,0,0,1-1.893,2.653v2.015h30.3V20.911h-.024V9.78c0-.518,0-1.008-.025-1.426ZM57.587,34.624a2.7,2.7,0,0,0-.909.148v7.593l2.974-2.9a2.626,2.626,0,0,0,.811-1.893,2.76,2.76,0,0,0-.762-1.916l-.22-.221A2.626,2.626,0,0,0,57.587,34.624ZM56.678,25.8v5.922l1.229-1.2a2.622,2.622,0,0,0,.811-1.892,2.768,2.768,0,0,0-.761-1.917l-.221-.221A2.707,2.707,0,0,0,56.678,25.8ZM28.05,2.039a4.3,4.3,0,0,0-3.072.885,2.968,2.968,0,0,0-.639,2.261V6.291H54.59V5.185a2.958,2.958,0,0,0-.639-2.261,4.215,4.215,0,0,0-3.072-.885Z" transform="translate(0.804 0.049)" fill="#1a1a1a"/>
    <path id="Shape-2" data-name="Shape" d="M3.613,7.25A3.616,3.616,0,0,1,1.917.442,3.471,3.471,0,0,1,3.637,0a3.617,3.617,0,0,1,.491,7.2l-.018,0A3.59,3.59,0,0,1,3.613,7.25Zm0-5.185A1.575,1.575,0,0,0,2.039,3.637v.074c.009.043.015.089.021.137a1.055,1.055,0,0,0,.053.256,1.571,1.571,0,1,0,1.5-2.039Z" transform="translate(36.669 49.81)" fill="#1a1a1a"/>
  </g>
</svg>
