<svg xmlns="http://www.w3.org/2000/svg" width="63.701" height="100.628" viewBox="0 0 63.701 100.628">
  <g id="tamaños-03" transform="translate(-0.163 -0.049)">
    <path id="Shape" d="M15.469,100.628a5.391,5.391,0,0,1-3.834-1.6L1.585,89a5.467,5.467,0,0,1,0-7.691l9.9-9.9-.123-21.182,2.776-2.285L20.7,42.512l1.549-1.277V5.757a5.608,5.608,0,0,1,1.376-4.086A6.8,6.8,0,0,1,28.665,0H54a6.8,6.8,0,0,1,5.037,1.671,5.608,5.608,0,0,1,1.376,4.086V33.935a4.047,4.047,0,0,1,.2,1.352,5.19,5.19,0,0,1-.2,1.229v3.858c.061.061.128.122.193.181s.138.125.2.188l.221.22a4.629,4.629,0,0,1-.074,6.512l-.541.516v.934a4.685,4.685,0,0,1,1.769,1.105l.221.221a4.633,4.633,0,0,1-.074,6.512l-1.917,1.868c-.06,3.08-.311,5.261-1.376,6.61-1.046,1.326-2.891,1.892-6.168,1.892h-1.2L34.563,83.8,19.327,99.031A5.416,5.416,0,0,1,15.469,100.628ZM24.02,42.242,15.715,49.1l-2.408,1.991.123,20.69a.986.986,0,0,1-.3.688l-10.2,10.2a3.549,3.549,0,0,0,0,5.013l10,10.05a3.522,3.522,0,0,0,2.507,1.032,3.566,3.566,0,0,0,2.507-1.032L32.744,82.935v-.024a.323.323,0,0,0,.1-.071l.052-.052.024-.024L44.392,71.582l4.546-4.448H29.82c-.367,0-.713,0-1.057-.024a15.508,15.508,0,0,1,.148,2.187l-.2,2.285a20.439,20.439,0,0,1-2.481,6.929,24.033,24.033,0,0,1-3,4.153.976.976,0,0,1-.688.294.955.955,0,0,1-.663-.27,1,1,0,0,1-.289-.7.914.914,0,0,1,.265-.653l.024-.024a21.216,21.216,0,0,0,4.841-9.338,13.355,13.355,0,0,0,.246-4.35c-.518-4.686-3.511-8.911-8.9-12.557l-1.18-.811,1.2-.787c3.179-2.054,5.353-4.146,6.463-6.217a4.443,4.443,0,0,0,.486-2.59A4.606,4.606,0,0,0,24.02,42.242Zm.491,11.328v1.745c0,1.081,0,2.015.025,2.875.1.11.2.228.293.342s.186.221.278.325c.062.082.264.348.879,1.152a11.741,11.741,0,0,1,2.359,4.841c.442.024.943.024,1.474.024H52.87c2.083,0,3.4-.055,4.17-.824,1.062-1.065,1.1-3.587,1.089-8.735V53.57H24.511Zm35.927-2.555v4.964L61,55.413a2.76,2.76,0,0,0,.073-3.833l-.221-.221A2.851,2.851,0,0,0,60.439,51.015ZM22.276,52.783l-.129.1c-.455.365-.926.742-1.419,1.1-.072.049-.146.1-.217.157s-.151.113-.226.163a.658.658,0,0,0,.074.062.663.663,0,0,1,.074.062.707.707,0,0,0,.074.061.708.708,0,0,1,.074.061.657.657,0,0,0,.074.062.663.663,0,0,1,.074.062c.518.377,1.011.8,1.488,1.2l.06.051V52.783ZM24.537,9.265c-.025.466-.025,1-.025,1.572V40.128l.148.123a6.435,6.435,0,0,1,1.548,7.912,12.169,12.169,0,0,1-1.67,2.408v.713H58.153V23.222H58.1V10.837c0-.569,0-1.106-.025-1.572ZM60.414,43.889h0v.589a.98.98,0,0,0,.025-.271A1.364,1.364,0,0,0,60.414,43.889ZM28.665,2.285a4.711,4.711,0,0,0-3.416.983,3.364,3.364,0,0,0-.713,2.507V7H58.128V5.774a3.261,3.261,0,0,0-.713-2.507A4.845,4.845,0,0,0,54,2.285Z" transform="translate(0.16 0.049)" fill="#1a1a1a"/>
    <path id="Shape-2" data-name="Shape" d="M4.03,8.035A4.034,4.034,0,0,1,0,4.006,3.986,3.986,0,0,1,2.089.491,3.9,3.9,0,0,1,4.006,0,4.014,4.014,0,0,1,4.6,7.987,4.048,4.048,0,0,1,4.03,8.035Zm0-5.774A1.747,1.747,0,0,0,2.285,4.006v.073a1.417,1.417,0,0,0,.074.443A1.746,1.746,0,1,0,4.03,2.261Z" transform="translate(37.474 55.315)" fill="#1a1a1a"/>
  </g>
</svg>
